HIERARCHY
ROOT Hips
{
	OFFSET 0.000000 0.000000 0.000000
	CHANNELS 6 Xposition Yposition Zposition Xrotation Yrotation Zrotation
	JOINT LeftUpLeg_virtual
	{
		OFFSET 0.000000 0.000000 0.000000
		CHANNELS 3 Xrotation Yrotation Zrotation
		JOINT LeftUpLeg
		{
			OFFSET 15.427100 -6.655098 0.678600
			CHANNELS 3 Xrotation Yrotation Zrotation
			JOINT LeftLeg
			{
				OFFSET 4.081073 -39.591068 13.024000
				CHANNELS 3 Xrotation Yrotation Zrotation
				JOINT LeftFoot
				{
					OFFSET -4.081074 -37.707932 -15.979700
					CHANNELS 3 Xrotation Yrotation Zrotation
					JOINT LeftToeBase
					{
						OFFSET 5.346399 -15.068900 20.645000
						CHANNELS 3 Xrotation Yrotation Zrotation
						JOINT LeftToe_End
						{
							OFFSET 2.754700 0.931300 11.300900
							CHANNELS 3 Xrotation Yrotation Zrotation
							End Site
							{
								OFFSET 0 0 0
							}
						}
					}
				}
			}
		}
	}
	JOINT RightUpLeg_virtual
	{
		OFFSET 0.000000 0.000000 0.000000
		CHANNELS 3 Xrotation Yrotation Zrotation
		JOINT RightUpLeg
		{
			OFFSET -15.569500 -6.655098 0.678600
			CHANNELS 3 Xrotation Yrotation Zrotation
			JOINT RightLeg
			{
				OFFSET -4.081825 -39.591045 13.023800
				CHANNELS 3 Xrotation Yrotation Zrotation
				JOINT RightFoot
				{
					OFFSET 4.081824 -37.707954 -15.979600
					CHANNELS 3 Xrotation Yrotation Zrotation
					JOINT RightToeBase
					{
						OFFSET -5.346400 -15.068900 20.645000
						CHANNELS 3 Xrotation Yrotation Zrotation
						JOINT RightToe_End
						{
							OFFSET -2.754700 0.931300 11.300900
							CHANNELS 3 Xrotation Yrotation Zrotation
							End Site
							{
								OFFSET 0 0 0
							}
						}
					}
				}
			}
		}
	}
	JOINT Spine_virtual
	{
		OFFSET 0.000000 0.000000 0.000000
		CHANNELS 3 Xrotation Yrotation Zrotation
		JOINT Spine
		{
			OFFSET -0.279200 12.230698 -2.892100
			CHANNELS 3 Xrotation Yrotation Zrotation
			JOINT Spine1
			{
				OFFSET -0.232667 10.192268 -1.242267
				CHANNELS 3 Xrotation Yrotation Zrotation
				JOINT Spine1_split
				{
					OFFSET -0.232667 10.192268 -1.242267
					CHANNELS 3 Xrotation Yrotation Zrotation
					JOINT Spine2
					{
						OFFSET -0.232667 10.192268 -1.242267
						CHANNELS 3 Xrotation Yrotation Zrotation
						JOINT Neck_virtual
						{
							OFFSET 0.000000 0.000000 0.000000
							CHANNELS 3 Xrotation Yrotation Zrotation
							JOINT Neck
							{
								OFFSET -0.418800 17.814194 8.416900
								CHANNELS 3 Xrotation Yrotation Zrotation
								JOINT Head
								{
									OFFSET 0.000000 7.031097 3.806800
									CHANNELS 3 Xrotation Yrotation Zrotation
									JOINT HeadTop_End
									{
										OFFSET 0.000000 24.646606 12.978600
										CHANNELS 3 Xrotation Yrotation Zrotation
										End Site
										{
											OFFSET 0 0 0
										}
									}
								}
							}
						}
						JOINT LeftShoulder_virtual
						{
							OFFSET 0.000000 0.000000 0.000000
							CHANNELS 3 Xrotation Yrotation Zrotation
							JOINT LeftShoulder
							{
								OFFSET 8.476499 7.247704 -3.868750
								CHANNELS 3 Xrotation Yrotation Zrotation
								JOINT LeftShoulder_split
								{
									OFFSET 8.476499 7.247704 -3.868750
									CHANNELS 3 Xrotation Yrotation Zrotation
									JOINT LeftArm
									{
										OFFSET 9.308998 -2.777710 0.208600
										CHANNELS 3 Xrotation Yrotation Zrotation
										JOINT LeftForeArm
										{
											OFFSET 29.972298 0.000000 0.000000
											CHANNELS 3 Xrotation Yrotation Zrotation
											JOINT LeftHand
											{
												OFFSET 26.026505 0.000000 0.000000
												CHANNELS 3 Xrotation Yrotation Zrotation
												End Site
												{
													OFFSET 0 0 0
												}
											}
										}
									}
								}
							}
						}
						JOINT RightShoulder_virtual
						{
							OFFSET 0.000000 0.000000 0.000000
							CHANNELS 3 Xrotation Yrotation Zrotation
							JOINT RightShoulder
							{
								OFFSET -7.570500 7.247704 -3.868750
								CHANNELS 3 Xrotation Yrotation Zrotation
								JOINT RightShoulder_split
								{
									OFFSET -7.570500 7.247704 -3.868750
									CHANNELS 3 Xrotation Yrotation Zrotation
									JOINT RightArm
									{
										OFFSET -9.308998 -2.777710 0.208500
										CHANNELS 3 Xrotation Yrotation Zrotation
										JOINT RightForeArm
										{
											OFFSET -29.972300 0.000000 0.000000
											CHANNELS 3 Xrotation Yrotation Zrotation
											JOINT RightHand
											{
												OFFSET -26.026505 0.000000 0.000000
												CHANNELS 3 Xrotation Yrotation Zrotation
												End Site
												{
													OFFSET 0 0 0
												}
											}
										}
									}
								}
							}
						}
					}
				}
			}
		}
	}
}
MOTION
Frames: 9
Frame Time: 0.03333333
0.134317 78.199524 -0.150314 0.000000 0.000000 0.000000 1.804216 -61.512103 4.356470 -31.004319 6.516802 27.142936 38.454563 -6.576200 -8.841478 -9.055594 -1.694507 -8.569529 0.191859 0.541137 0.900676 0.000000 0.000000 0.000000 0.580126 -60.847464 3.883087 -26.156356 -10.710549 -28.079779 40.311339 6.242646 -5.185814 -18.304110 0.585567 23.526209 3.579228 -0.572187 -0.496033 0.000000 0.000000 0.000000 0.684615 -59.528555 3.661463 11.558797 0.764679 -2.130928 9.045908 -0.826352 -5.495694 1.148606 -4.216261 1.259982 0.000000 0.000000 0.000000 9.941357 -0.541003 -5.474180 -18.694127 19.282753 13.215111 -3.606974 26.611769 -2.258901 0.000000 0.000000 0.000000 9.573256 -0.837026 -5.048601 -5.835441 -10.807836 -4.209645 -0.193131 -3.309531 -1.328915 -18.406400 8.205605 -31.487865 3.979909 -38.350180 2.798837 0.000000 0.000000 0.000000 9.168781 -0.902314 -5.493184 -6.006576 7.334109 3.320609 0.973953 0.092691 1.968995 -40.286430 -18.617035 34.115190 -161.264578 64.737646 161.687353 0.000000 0.000000 0.000000 
0.041091 78.079643 0.219326 0.000000 0.000000 0.000000 1.570758 -61.805036 4.093676 -30.972309 6.903801 27.394012 38.667432 -6.788841 -8.863804 -9.280805 -1.745345 -8.507219 0.047984 0.561749 0.945223 0.000000 0.000000 0.000000 0.405675 -60.775522 3.649078 -25.920590 -10.693171 -27.868944 40.828101 6.068261 -5.117675 -18.350517 0.417448 23.089280 3.279880 -0.564053 -0.447317 0.000000 0.000000 0.000000 0.109736 -59.277777 3.092438 11.450276 0.671353 -2.195589 8.801243 -0.817219 -5.565045 0.950075 -3.216929 1.016080 0.000000 0.000000 0.000000 9.170053 -0.534748 -5.576473 -18.082371 19.065802 12.755191 -2.505792 25.981437 -1.796385 0.000000 0.000000 0.000000 9.308329 -0.850589 -5.226158 -5.721032 -10.670925 -4.506123 -0.504144 -2.481254 -1.684856 -18.513378 7.596527 -31.688649 4.212847 -38.676971 3.002807 0.000000 0.000000 0.000000 8.998884 -0.850213 -5.622468 -5.958956 7.360202 3.829804 1.200985 0.453332 2.716853 -38.842316 -18.662297 34.974096 -159.234618 66.015800 159.714521 0.000000 0.000000 0.000000 
-0.129846 78.165550 0.586567 0.000000 0.000000 0.000000 1.005200 -62.126335 3.327106 -30.985611 7.586674 27.880154 38.964549 -7.120210 -8.819699 -9.578037 -1.839876 -8.407306 0.008975 0.629525 0.872042 0.000000 0.000000 0.000000 -0.080405 -60.735791 2.914919 -25.261129 -10.875071 -27.351788 40.948726 5.915027 -5.066294 -18.035823 0.255227 22.799547 2.683781 -0.584422 -0.434513 0.000000 0.000000 0.000000 -0.555469 -58.959477 2.206963 11.109627 0.700503 -2.178815 8.153775 -0.653781 -5.707965 0.679305 -2.355781 0.681855 0.000000 0.000000 0.000000 7.910216 -0.348514 -5.785110 -16.873171 18.518881 12.385651 0.086543 23.527959 -0.262180 0.000000 0.000000 0.000000 8.639943 -0.731315 -5.475762 -5.698509 -10.428240 -4.847382 -1.251462 -1.680757 -1.859944 -18.653086 6.666102 -32.300129 3.414245 -39.199528 2.387305 0.000000 0.000000 0.000000 8.403848 -0.603268 -5.755763 -5.863616 7.158838 4.675968 1.451679 0.864399 2.385989 -37.108110 -17.847202 36.351486 -155.523517 68.461923 156.015085 0.000000 0.000000 0.000000 
-0.301695 78.513901 0.816769 0.000000 0.000000 0.000000 0.266441 -62.314077 2.251774 -30.933042 8.400646 28.420362 38.974705 -7.468364 -8.713825 -9.702367 -1.970447 -8.362153 -0.077916 0.725878 0.727853 0.000000 0.000000 0.000000 -0.632005 -60.720757 1.949838 -24.237037 -11.255561 -26.592346 40.261431 5.798952 -5.046113 -17.440586 0.159291 22.622177 2.070592 -0.614490 -0.442009 0.000000 0.000000 0.000000 -1.126699 -58.690122 1.249142 10.584083 0.857472 -2.090775 7.235874 -0.358125 -5.874600 0.456235 -1.479547 0.400233 0.000000 0.000000 0.000000 6.441848 0.011943 -6.007503 -15.532077 17.862335 12.075223 3.382026 20.025720 2.000129 0.000000 0.000000 0.000000 7.680088 -0.477929 -5.726749 -5.749588 -10.087868 -5.120390 -2.177478 -1.007493 -1.797161 -18.749076 5.601491 -33.173303 2.014861 -40.190124 1.226412 0.000000 0.000000 0.000000 7.467658 -0.221594 -5.856016 -5.678393 6.710609 5.569482 1.693908 0.982388 1.399195 -35.632492 -16.411942 38.084865 -149.900987 71.303705 150.345892 0.000000 0.000000 0.000000 
-0.395250 79.153961 0.953678 0.000000 0.000000 0.000000 -0.485666 -62.416147 1.103921 -30.736691 9.220720 28.852191 38.381674 -7.723472 -8.576781 -9.365753 -2.134877 -8.358221 -0.319674 0.812461 0.587053 0.000000 0.000000 0.000000 -1.116110 -60.719446 0.989459 -23.026666 -11.808234 -25.702386 38.642331 5.704642 -5.052409 -16.527531 0.191108 22.497229 1.829753 -0.631835 -0.443200 0.000000 0.000000 0.000000 -1.367647 -58.586084 0.492411 9.972738 1.119891 -1.977958 6.206957 0.007518 -5.998594 0.408234 -1.000221 0.446317 0.000000 0.000000 0.000000 5.059936 0.450810 -6.167697 -14.805442 17.327490 11.638785 6.179303 16.473646 4.397579 0.000000 0.000000 0.000000 6.617706 -0.141903 -5.869601 -5.816962 -9.683016 -5.109148 -3.055463 -0.272081 -1.916460 -18.706240 4.699867 -34.177215 0.644287 -41.452036 0.026453 0.000000 0.000000 0.000000 6.361332 0.215120 -5.867865 -5.440436 6.124512 6.191603 1.861759 1.058727 0.553332 -34.546991 -14.678025 40.060108 -142.189198 74.009812 142.518522 0.000000 0.000000 0.000000 
-0.385465 80.056213 0.973854 0.000000 0.000000 0.000000 -0.964521 -62.473705 0.215335 -30.406264 9.927264 29.085179 37.131695 -7.842380 -8.433194 -8.458501 -2.327152 -8.354747 -0.533609 0.860040 0.465468 0.000000 0.000000 0.000000 -1.395453 -60.825198 0.235613 -21.945229 -12.459473 -24.809417 36.278970 5.607921 -5.031784 -15.262076 0.336035 22.426421 2.040896 -0.637942 -0.410412 0.000000 0.000000 0.000000 -1.315314 -58.781250 0.003554 9.418882 1.419723 -1.888707 5.229614 0.371994 -6.035662 0.301301 -1.006924 0.900675 0.000000 0.000000 0.000000 4.043133 0.882858 -6.190642 -15.266835 17.161115 10.949616 7.536643 13.913554 6.037547 0.000000 0.000000 0.000000 5.685253 0.199047 -5.851800 -5.850229 -9.208168 -4.644179 -3.604298 0.498125 -2.134581 -18.490775 3.871823 -35.328317 -0.076841 -42.776201 -0.718731 0.000000 0.000000 0.000000 5.305530 0.606792 -5.788542 -5.177379 5.540694 6.331326 2.034774 1.202019 0.098970 -33.905602 -13.072572 42.075847 -132.655552 76.188172 132.818848 0.000000 0.000000 0.000000 
-0.268542 81.033615 0.868206 0.000000 0.000000 0.000000 -1.193034 -62.557102 -0.385870 -30.014173 10.570503 29.235324 35.502323 -7.879880 -8.336383 -7.170216 -2.545058 -8.295057 -0.607438 0.863337 0.372229 0.000000 0.000000 0.000000 -1.542848 -61.086821 -0.277931 -21.239189 -13.058184 -24.040336 33.792890 5.559145 -4.994252 -13.789813 0.590248 22.387629 2.394847 -0.631844 -0.383867 0.000000 0.000000 0.000000 -1.144560 -59.143038 -0.291079 9.038880 1.714029 -1.862578 4.492211 0.681508 -5.975150 0.226722 -1.306087 1.288201 0.000000 0.000000 0.000000 3.536835 1.205926 -6.060843 -17.116082 17.513582 9.987495 7.147474 12.858539 6.290455 0.000000 0.000000 0.000000 5.035227 0.493455 -5.678874 -5.841316 -8.702178 -3.812819 -3.916720 1.143489 -2.597256 -18.135496 2.901191 -36.467640 0.264542 -43.945649 -0.639585 0.000000 0.000000 0.000000 4.473029 0.894602 -5.645526 -4.915335 5.199203 5.928156 2.192946 1.255270 0.299525 -33.541095 -11.941557 43.841096 -121.694068 77.743576 121.659248 0.000000 0.000000 0.000000 
-0.041827 81.843819 0.700436 0.000000 0.000000 0.000000 -1.318145 -62.706628 -0.815936 -29.735061 11.162350 29.423096 33.927127 -7.879547 -8.304785 -5.980587 -2.735423 -8.101503 -0.463840 0.838127 0.300637 0.000000 0.000000 0.000000 -1.730171 -61.495922 -0.703727 -21.016004 -13.473783 -23.425713 31.939255 5.528658 -4.962103 -12.398830 0.859614 22.347704 2.601415 -0.624552 -0.394338 0.000000 0.000000 0.000000 -1.045360 -59.625974 -0.565115 8.910267 1.953232 -1.892917 4.112986 0.868007 -5.833795 0.429984 -1.801281 1.489098 0.000000 0.000000 0.000000 3.544011 1.333385 -5.820927 -20.117759 18.358719 8.908620 5.144513 13.402583 5.125441 0.000000 0.000000 0.000000 4.804497 0.667155 -5.395151 -5.775385 -8.230453 -2.677382 -4.130708 1.626181 -3.250381 -17.912875 1.823155 -37.377213 1.486968 -44.457814 0.238039 0.000000 0.000000 0.000000 4.099385 1.035730 -5.467658 -4.693171 5.295394 5.028942 2.251657 1.364113 0.925614 -33.337026 -11.592702 44.891763 -111.875275 78.640653 111.623172 0.000000 0.000000 0.000000 
0.274141 82.248093 0.408733 0.000000 0.000000 0.000000 -1.467310 -62.884951 -1.190602 -29.740522 11.611656 29.730406 32.957363 -7.942316 -8.330403 -5.318612 -2.877425 -7.872669 -0.169100 0.801568 0.264018 0.000000 0.000000 0.000000 -2.091169 -61.819100 -1.218799 -21.210705 -13.610159 -22.930441 31.320502 5.478822 -4.982983 -11.521124 1.003660 22.172806 2.634954 -0.627805 -0.432886 0.000000 0.000000 0.000000 -1.329448 -60.168694 -1.053029 9.039575 2.098524 -1.942584 4.127610 0.904781 -5.663808 0.756203 -2.291453 1.471940 0.000000 0.000000 0.000000 3.989934 1.275076 -5.523516 -23.595353 19.546186 8.087624 2.190784 15.290656 2.972122 0.000000 0.000000 0.000000 5.021162 0.709954 -5.090082 -5.670768 -7.863539 -1.447222 -4.119571 1.705092 -3.715982 -18.100392 0.664167 -37.925394 3.051683 -44.270199 1.478309 0.000000 0.000000 0.000000 4.231195 1.014646 -5.314031 -4.497774 5.829267 3.817044 2.287688 1.496664 1.595029 -33.356185 -12.266098 44.853760 -108.156592 78.955252 107.695015 0.000000 0.000000 0.000000 
